<svg xmlns="http://www.w3.org/2000/svg" xmlns:xlink="http://www.w3.org/1999/xlink" width="100%" height="100%" viewBox="0 0 560 560" preserveAspectRatio="xMinYMin meet" ><rect id="svgEditorBackground" x="0" y="0" width="560" height="560" style="fill: none; stroke: none;"/><polyline style="stroke:none;fill:#A9A7A8;stroke-width:1px" id="e1_polyline" points="300.778 224.594 280.989 230.53 277.032 242.403 269.117 258.233 267.138 265.159 266.148 274.064 266.148 279.011 269.117 280.989 277.032 281.979 280.989 281.979 346.29 281.979 577.809 285.936 579.788 281.979 592.65 271.095 601.555 270.106 610.459 272.085 630.247 274.064 643.11 285.936 646.078 279.011 649.046 285.936 670.813 285.936 684.664 283.958 688.622 278.021 692.58 269.117 692.58 230.53 690.601 223.604 683.675 217.668 671.802 208.763 620.353 197.88 514.488 163.251 362.12 162.261 299.788 174.134 299.788 183.039 296.82 186.007 296.82 193.922 328.481 193.922 361.131 176.113 510.53 173.145 602.544 212.721 607.491 218.657 356.184 218.657 291.873 205.795" transform="matrix(2.30605 0 0 2.30605 -603.505 -266.786)"/><circle id="e2_circle" cx="335.408" cy="281.987" style="fill:#A9A7A8;stroke:none;stroke-width:1px" r="31.676"/><circle id="e3_circle" cx="610.461000" cy="282.976000" style="fill:#A9A7A8;stroke:none;stroke-width:1px" r="31.676000"/><circle id="e5_circle" cx="300.777" cy="184.03" style="fill:#A9A7A8;stroke:none;stroke-width:1px" r="9.943" transform="matrix(7.65144 0 0 7.65144 -1497 -1022.72)"/><polygon style="stroke:none;fill:#A9A7A8;stroke-width:1px" id="e7_polygon" points="75.1945,233.498,75.6889,244.381,74.2045,249.328,61.3429,258.233,94.982,252.297"/><polygon style="stroke:none;fill:#A9A7A8;stroke-width:1px" id="e1_polygon" points="85.0885 243.392 85.5829 254.275 84.0985 259.222 71.2369 268.127 104.876 262.191" transform="matrix(1.8164 0 0 1.8164 -80.2908 -224.048)"/><circle id="e16_circle" cx="216.855000" cy="183.901000" style="fill:#A9A7A8;stroke:none;stroke-width:1px" r="9.943000" transform="matrix(7.65144 0 0 7.65144 -1497 -1022.72)"/><circle id="e9_circle" cx="85.999300" cy="160.545000" style="fill:#A9A7A8;stroke:none;stroke-width:1px" r="24.971000" transform="matrix(0.929055 0 0 0.929055 8.95248 8.6897)"/></svg>