<svg xmlns="http://www.w3.org/2000/svg" xmlns:xlink="http://www.w3.org/1999/xlink" width="100%" height="100%" viewBox="0 0 1080 620" preserveAspectRatio="xMinYMin meet" ><rect id="svgEditorBackground" x="0" y="0" width="1080" height="620" style="fill:none;stroke:none"/><defs id="svgEditorDefs"><symbol xmlns="http://www.w3.org/2000/svg" id="f5e4" preserveAspectRatio="xMidYMid meet" viewBox="0 0 640 512"><path d="M544 192h-16L419.22 56.02A64.025 64.025 0 0 0 369.24 32H155.33c-26.17 0-49.7 15.93-59.42 40.23L48 194.26C20.44 201.4 0 226.21 0 256v112c0 8.84 7.16 16 16 16h48c0 53.02 42.98 96 96 96s96-42.98 96-96h128c0 53.02 42.98 96 96 96s96-42.98 96-96h48c8.84 0 16-7.16 16-16v-80c0-53.02-42.98-96-96-96zM160 432c-26.47 0-48-21.53-48-48s21.53-48 48-48 48 21.53 48 48-21.53 48-48 48zm72-240H116.93l38.4-96H232v96zm48 0V96h89.24l76.8 96H280zm200 240c-26.47 0-48-21.53-48-48s21.53-48 48-48 48 21.53 48 48-21.53 48-48 48z"/></symbol><symbol xmlns="http://www.w3.org/2000/svg" id="f0e7" preserveAspectRatio="xMidYMid meet" viewBox="0 0 320 512"><path d="M296 160H180.6l42.6-129.8C227.2 15 215.7 0 200 0H56C44 0 33.8 8.9 32.2 20.8l-32 240C-1.7 275.2 9.5 288 24 288h118.7L96.6 482.5c-3.6 15.2 8 29.5 23.3 29.5 8.4 0 16.4-4.4 20.8-12l176-304c9.3-15.9-2.2-36-20.7-36z"/></symbol><symbol xmlns="http://www.w3.org/2000/svg" id="f52f" preserveAspectRatio="xMidYMid meet" viewBox="0 0 512 512"><path d="M336 448H16c-8.8 0-16 7.2-16 16v32c0 8.8 7.2 16 16 16h320c8.8 0 16-7.2 16-16v-32c0-8.8-7.2-16-16-16zm157.2-340.7l-81-81c-6.2-6.2-16.4-6.2-22.6 0l-11.3 11.3c-6.2 6.2-6.2 16.4 0 22.6L416 97.9V160c0 28.1 20.9 51.3 48 55.2V376c0 13.2-10.8 24-24 24s-24-10.8-24-24v-32c0-48.6-39.4-88-88-88h-8V64c0-35.3-28.7-64-64-64H96C60.7 0 32 28.7 32 64v352h288V304h8c22.1 0 40 17.9 40 40v27.8c0 37.7 27 72 64.5 75.9 43 4.3 79.5-29.5 79.5-71.7V152.6c0-17-6.8-33.3-18.8-45.3zM256 192H96V64h160v128z"/></symbol></defs><text dy="-0.5em" style="fill:black;font-family:Arial;font-size:20px" id="e3_text"><textPath id="e2_textPath" xlink:href="#e1_shape">T</textPath></text><use xlink:href="#f52f" x="293.035000" y="177.719000" width="319.590000" height="319.590000" id="e11_icon" style="fill:#A9A7A8" transform="matrix(1.82536 0 0 1.82536 -490.596 -308.537)"/><path d="M-3.965469,-2.275849v-1.5a2,2,0,0,0,-2,-2h-4a2,2,0,0,0,-2,2v3a2,2,0,0,0,2,2h4a2,2,0,0,0,2,-2Z" style="fill:#A9A7A8;stroke:none;vector-effect:non-scaling-stroke;stroke-width:1px" id="e12_shape" transform="matrix(26.9538 0 0 26.9538 461.643 217.769)"/><rect x="172.147000" y="472.826000" style="fill:#A9A7A8;stroke:none;stroke-width:1px" id="e15_rectangle" width="178.330000" height="54.100000" transform="matrix(1.8498 0 0 1 -238.749 7.01299)"/><use xlink:href="#f0e7" x="250.075000" y="158.183000" width="101.440000" height="162.300000" id="e16_icon" style="fill:white" transform="matrix(1.3617 0 0 1.3617 -156.321 -31.6353)"/></svg>